# xmcd
#
# Track frame offsets:
#	150
#	13616
#	29024
#	43429
#	59990
#	77955
#	93900
#	106324
#	122586
#	137694
#	150950
#	152956
#	160434
#	177397
#	202734
#
# Disc length: 3091 seconds
#
# Revision: 3
# Processed by: cddbd v1.5.2PL0 Copyright (c) Steve Scherf et al.
# Submitted via: EZCDAudioConverter 2.1.7.1
#
DISCID=cc0c110f
DTITLE=The Cure - Seventeen Seconds 2/2
DYEAR=1980
DGENRE=
TTITLE0=I'm A Cult Hero [Vinyl Single By Cult Hero]
TTITLE1=I Dig You [Vinyl Single By Cult Hero]
TTITLE2=Another Journey By Train [Home Demo]
TTITLE3=Secrets [Home Demo]
TTITLE4=Seventeen Seconds [Live]
TTITLE5=In Your House [Live]
TTITLE6=Three [Alternate Studio Mix]
TTITLE7=I Dig You [Cult Hero Live]
TTITLE8=I'm A Cult Hero [Cult Hero Live]
TTITLE9=M [Live]
TTITLE10=The Final Sound [Live]
TTITLE11=A Reflection [Live]
TTITLE12=Play For Today [Live]
TTITLE13=At Night [Live]
TTITLE14=A Forest [Live]
EXTD=
EXTT0=
EXTT1=
EXTT2=
EXTT3=
EXTT4=
EXTT5=
EXTT6=
EXTT7=
EXTT8=
EXTT9=
EXTT10=
EXTT11=
EXTT12=
EXTT13=
EXTT14=
PLAYORDER=
